C:\GBW_MyPrograms\KinderuniversiteitApp\Resultaten\Ellis\SpongeBob\SpongeBob_v1.mot
version=1
nRows=13
nColumns=29
inDegrees=yes
endheader
                time	         pelvis_tilt	           pelvis_tx	           pelvis_ty	       hip_flexion_l	       hip_flexion_r	        knee_angle_l	        knee_angle_r	       ankle_angle_l	       ankle_angle_r	    lumbar_extension	hamstrings_r/activation	bifemsh_r/activation	glut_max_r/activation	iliopsoas_r/activation	rect_fem_r/activation	  vasti_r/activation	gastroc_r/activation	 soleus_r/activation	tib_ant_r/activation	hamstrings_l/activation	bifemsh_l/activation	glut_max_l/activation	iliopsoas_l/activation	rect_fem_l/activation	  vasti_l/activation	gastroc_l/activation	 soleus_l/activation	tib_ant_l/activation	
          0.00000000	        -10.17478682	          0.00000000	          0.91037355	         -7.87323683	         26.62260144	         -9.50750183	         -9.16540315	         -7.47529271	          2.97674003	          2.20163208	          0.37550997	          0.06174775	          0.11538497	          0.05622001	          0.09801530	          0.12179601	          0.05755119	          0.06139546	          0.27482309	          0.05492903	          0.17997146	          0.05317507	          0.89265181	          0.06414742	          0.05124275	          0.34174097	          0.58104210	          0.05059610	
          0.00889900	        -10.12350941	          0.01350200	          0.90881442	         -7.43273666	         25.87273350	        -11.86118274	         -8.67551556	         -8.06914746	          2.70166217	          2.43172484	          0.34246933	          0.06187988	          0.14932608	          0.05378262	          0.08654685	          0.19609102	          0.05109065	          0.05394842	          0.34830397	          0.05429328	          0.16053349	          0.05025821	          0.77794327	          0.06050617	          0.05088194	          0.29772430	          0.50649064	          0.05051325	
          0.01779801	        -10.06930175	          0.02715024	          0.90719706	         -6.80660584	         25.11654811	        -14.53358886	         -8.85118289	         -8.84981768	          2.43963740	          2.67870425	          0.29986580	          0.06937319	          0.20788119	          0.05260882	          0.07603950	          0.22888944	          0.06020740	          0.06009062	          0.32160820	          0.06140690	          0.14289228	          0.05222842	          0.67783108	          0.05633308	          0.05090367	          0.25936976	          0.44120012	          0.05039720	
          0.02669701	        -10.01544758	          0.04082081	          0.90564608	         -5.98341361	         24.31252954	        -17.48911520	         -9.13841665	         -9.95786419	          2.48510548	          2.93004213	          0.26216342	          0.07478024	          0.27635987	          0.05192356	          0.06680390	          0.24140829	          0.05351562	          0.05286187	          0.37490428	          0.06127423	          0.12705847	          0.07388439	          0.59042399	          0.05630792	          0.05070881	          0.22595949	          0.38428266	          0.05040168	
          0.03559602	         -9.96691895	          0.05430592	          0.90433199	         -4.95366948	         23.53915712	        -20.68557749	         -9.46430671	        -11.42616783	          2.65807070	          3.16416229	          0.22981835	          0.07273499	          0.36226366	          0.05101318	          0.05881282	          0.31432470	          0.05005948	          0.05556364	          0.32776667	          0.06087779	          0.11342056	          0.07004519	          0.51433365	          0.06208692	          0.05712624	          0.19686616	          0.33470157	          0.32712049	
          0.04449502	         -9.92553115	          0.06741604	          0.90334341	         -3.75180004	         22.86095623	        -24.05215432	         -9.95835105	        -12.77659255	          3.31007436	          3.35886555	          0.20081504	          0.06909029	          0.37970907	          0.05048349	          0.05333747	          0.37358269	          0.05464082	          0.16087944	          0.28575087	          0.06009730	          0.10384063	          0.06742636	          0.44816915	          0.08948350	          0.05515231	          0.17165849	          0.29155277	          0.31372821	
          0.05339402	         -9.89391476	          0.08007261	          0.90281590	         -2.43874892	         22.25486641	        -27.42544424	        -10.52283325	        -13.21289784	          4.08865635	          3.50748924	          0.17625408	          0.07105080	          0.35970135	          0.05113091	          0.05317243	          0.35915393	          0.05517762	          0.21993979	          0.24926984	          0.05916232	          0.10467366	          0.05958930	          0.39062731	          0.11692347	          0.05132657	          0.15002216	          0.25399731	          0.38402471	
          0.06229303	         -9.87087055	          0.09231150	          0.90284227	         -1.05472940	         21.68424787	        -30.68216265	        -11.07506028	        -13.22504645	          4.79475425	          3.61359729	          0.15621004	          0.07510441	          0.33624611	          0.05179309	          0.05482900	          0.31895275	          0.06840742	          0.28277590	          0.21793117	          0.06016788	          0.12468001	          0.05269826	          0.34071287	          0.16718272	          0.05067993	          0.13201181	          0.22130680	          0.39085368	
          0.07119203	         -9.85589417	          0.10420147	          0.90336924	          0.36440134	         21.12172808	        -33.73949079	        -11.56226115	        -13.02815526	          5.32048744	          3.68577161	          0.14510631	          0.08074871	          0.31275145	          0.05233703	          0.05580523	          0.28014889	          0.11252900	          0.33654212	          0.19201790	          0.06467044	          0.15268292	          0.05096997	          0.29763953	          0.23604590	          0.05063259	          0.11968245	          0.19284350	          0.37274448	
          0.08009104	         -9.84820009	          0.11581481	          0.90429179	          1.78934580	         20.54111579	        -36.54378818	        -11.94374563	        -12.69497577	          5.64511217	          3.73265705	          0.14027463	          0.08714898	          0.29109205	          0.05205829	          0.05585775	          0.24529058	          0.15701185	          0.37614996	          0.17103390	          0.07343651	          0.18313681	          0.05137983	          0.26134815	          0.29455326	          0.05065280	          0.11066026	          0.16804982	          0.35282519	
          0.08899004	         -9.84696532	          0.12721026	          0.90550412	          3.20154063	         19.92361486	        -39.06794122	        -12.19780361	        -12.27653486	          5.80633512	          3.76109858	          0.14223802	          0.09586188	          0.26891527	          0.05205402	          0.05593335	          0.21445717	          0.20042933	          0.40454578	          0.15196142	          0.08134623	          0.21195285	          0.05131733	          0.23217312	          0.33948310	          0.05067101	          0.10189375	          0.14645596	          0.32963813	
          0.09788904	         -9.85139137	          0.13842754	          0.90691604	          4.59221205	         19.26057237	        -41.30762374	        -12.31852271	        -11.79243416	          5.83674410	          3.77538060	          0.14725010	          0.10881406	          0.24646152	          0.05217472	          0.05612769	          0.18736039	          0.24267658	          0.42463431	          0.13411370	          0.08621484	          0.24010159	          0.05125577	          0.21022515	          0.36906323	          0.05071544	          0.09264177	          0.12765144	          0.30725725	
          0.10678805	         -9.86085814	          0.14949036	          0.90845464	          5.95920711	         18.55235416	        -43.27206481	        -12.31360139	        -11.25095310	          5.76302962	          3.77782318	          0.15447820	          0.13396406	          0.22533122	          0.05237539	          0.05616092	          0.16362732	          0.28354937	          0.43824308	          0.11791169	          0.08711246	          0.26710178	          0.05120516	          0.19433086	          0.38400295	          0.05078026	          0.08361430	          0.11128013	          0.28629370	
